<svg width="93" height="58" viewBox="0 0 93 58" fill="none" xmlns="http://www.w3.org/2000/svg">
<g clip-path="url(#clip0_736_10)">
<path d="M57.8717 0L56.8822 1.37634L56.6874 1.64324L48.7133 12.7011L48.4975 12.9994L28.7595 40.3744L0.0789518 0H0V58H8.92156V27.464L28.4016 54.4205L28.5016 54.5565H28.6595L46.85 28.9084L48.4975 26.5849L48.7133 26.2813L48.8712 26.0563L49.4238 25.2765L57.8138 13.4547L58.0296 13.1511V0H57.8717Z" fill="white"/>
<path d="M68.767 26.339L92.5316 1.37646H80.6888L59.1349 24.3766L57.7927 26.182L58.0296 23.3561V16.8512L49.6397 28.673L49.087 29.4528L48.7133 29.9814V58.0001H58.0296V35.9943L62.0561 32.1479L81.3257 58.0001H93L68.767 26.339ZM56.8348 1.37646L54.1662 5.07637L53.5346 5.94508L51.2397 9.13736L48.7133 12.6436V26.3181L49.087 25.7895L49.6397 25.0098L58.0296 13.1879V1.37646H56.8348Z" fill="white"/>
<path d="M58.0033 12.9941H48.7396V30.7872H58.0033V12.9941Z" fill="white" stroke="white" stroke-width="0.1" stroke-miterlimit="10"/>
</g>
<defs>
<clipPath id="clip0_736_10">
<rect width="93" height="58" fill="white"/>
</clipPath>
</defs>
</svg>
